# xmcd
#
# Track frame offsets:
#	150
#	15060
#	26062
#	42100
#	58869
#	71752
#	84881
#	97981
#	113178
#	126153
#	139633
#	152792
#	164606
#
# Disc length: 2358 seconds
#
# Revision: 1
# Processed by: cddbd v1.5.2PL0 Copyright (c) Steve Scherf et al.
# Submitted via: audiograbber 1.83.01
#
DISCID=a109340d
DTITLE=The Grass Cats - Home to Carolina
DYEAR=2006
DGENRE=Folk
TTITLE0=Long Way Back
TTITLE1=Fading Memory
TTITLE2=Pill Or Potion
TTITLE3=Let My Love Open the Door
TTITLE4=Lonesome and Crying
TTITLE5=Home to Carolina
TTITLE6=My Heart Cracked
TTITLE7=Right Next Door
TTITLE8=How Do You Talk to An Angel
TTITLE9=Well Done and Welcome Home
TTITLE10=Just To See You Smile
TTITLE11=God Must Be a Cowboy
TTITLE12=Hard Way of Life
EXTD=
EXTT0=
EXTT1=
EXTT2=
EXTT3=
EXTT4=
EXTT5=
EXTT6=
EXTT7=
EXTT8=
EXTT9=
EXTT10=
EXTT11=
EXTT12=
PLAYORDER=
